<svg t="1717748197310" class="icon" viewBox="0 0 1029 1024" version="1.1" xmlns="http://www.w3.org/2000/svg"
  p-id="10061" width="256" height="256">
  <path
    d="M489.283974 484.439578m-484.439578 0a484.439578 484.439578 0 1 0 968.879157 0 484.439578 484.439578 0 1 0-968.879157 0Z"
    fill="#45B558" p-id="10062"></path>
  <path
    d="M535.305734 166.162775s174.398248-25.675298 276.13056 57.163871 198.620227 251.908581 135.643082 421.462433-411.773642-478.626303-411.773642-478.626304z"
    opacity=".26" p-id="10063"></path>
  <path
    d="M231.562118 484.439578s17.924264 66.368222 95.434597 123.047653c7.751033 5.813275 15.017627 12.110989 21.315342 19.377583L401.115971 687.904201s14.048748 38.270727-4.844396 53.288354c-18.408704 14.533187-92.04352 53.288354-145.331873 193.775831s-135.643082 72.665937-135.643082 72.665937-82.354728-58.132749-62.977146-227.686602c0 0 19.377583-203.464623 179.242644-295.508143z"
    p-id="10064"></path>
  <path
    d="M779.947721 314.885726s201.042425 53.288354 171.976051 329.418913c0 0-29.066375 227.686602-295.508143 310.04133 0 0-108.030026 30.519693-276.13056 9.688792-157.442863-19.377583-16.955385-164.709457-16.955385-164.709457s41.177364-43.599562 138.06528-48.443957S881.680033 605.549473 779.947721 314.885726z"
    p-id="10065"></path>
  <path
    d="M372.049596 216.060052c-1.453319-1.453319-2.906637-2.906637-4.359956-3.875517-27.613056-11.62655-31.488573-27.128616-13.564308-51.350595 15.502067-20.830902 48.928397-30.519693 73.150376-20.830902 14.533187 5.813275 22.284221 16.470946 20.346462 32.941891-25.675298 13.564308-52.803914 24.706418-75.572574 43.115123z"
    fill="#090B06" p-id="10066"></path>
  <path
    d="M826.453921 233.015437l1.453318 2.906638c4.844396 15.017627 7.266594 30.519693-2.422197 44.568441-7.266594 10.657671-17.439825 15.502067-31.004133 15.017627-6.782154 0-9.688792-0.48444-26.644177-6.297715-0.968879-0.968879-2.422198-2.422198-3.875517-3.391077-9.204352-17.924264-23.2531-31.973012-35.848529-46.990639-2.906637-3.391077-3.875517-7.751033-3.391077-12.110989 3.391077-24.221979 13.564308-32.457452 39.239606-31.973012h1.937758c26.644177 3.875517 49.412837 17.924264 60.554948 38.270726z"
    fill="#080906" p-id="10067"></path>
  <path d="M314.885726 842.924866a67.821541 58.132749 0 1 0 135.643082 0 67.821541 58.132749 0 1 0-135.643082 0Z"
    p-id="10068"></path>
  <path
    d="M256.752977 920.435199s35.848529-115.781059 129.829807-173.913809c0.48444 0 0.48444-0.48444 0.484439-0.484439 3.391077-2.906637 33.91077-31.004133-2.906637-67.337102-38.755166-38.755166-159.865061-150.176269-164.709457-188.931435 0 0-48.443958-96.887916 38.755166-164.709457s116.265499-116.265499 116.265499-116.265499 33.91077-48.443958 150.176269-43.599562 189.900315 42.630683 232.530998 106.576707c38.755166 58.132749 43.599562 125.95429 43.599562 125.954291s29.066375 188.931436-155.020665 300.352538c0 0-72.665937 48.443958-169.553852 58.13275-103.67007 19.377583-130.798686 62.977145-130.798687 62.977145s-69.759299 82.354728-21.799781 125.95429c0.48444-0.48444-13.564308-0.48444-66.852661-24.706418z"
    fill="#FFFFFF" p-id="10069"></path>
  <path
    d="M623.473737 418.071356c-1.453319 28.581935-14.048748 51.350595-32.941891 70.243739-15.502067 15.502067-35.848529 12.595429-45.052881-7.266594-19.377583-41.661804-32.457452-85.745805-42.630683-130.314246-3.875517-17.439825 7.266594-28.097496 23.2531-27.128617 36.817408 2.422198 89.621322 48.928397 96.403476 84.776927 0.48444 3.875517 0.48444 7.266594 0.968879 9.688791z"
    fill="#0A0708" p-id="10070"></path>
  <path
    d="M270.317285 371.565157c3.875517-35.848529 41.661804-74.119255 83.808047-83.323608 11.62655-2.422198 27.613056-12.595429 35.364089 0.48444 7.751033 14.048748-9.688792 21.315341-18.408704 29.066374-24.221979 22.284221-49.412837 43.599562-74.603695 64.914904-5.813275 4.844396-12.595429 9.204352-20.346462 4.844396-5.813275-3.391077-6.297715-9.688792-5.813275-15.986506z"
    fill="#0D0B0A" p-id="10071"></path>
  <path
    d="M401.115971 429.213466c-4.359956-0.968879-11.62655-2.422198-18.408704-4.844395-11.62655-3.875517-22.284221-4.844396-28.581935 9.204352-1.453319 2.906637-3.391077 6.297715-7.266594 4.359956s-1.937758-5.328835-0.968879-8.719913c3.875517-10.657671 3.875517-19.862023-4.359956-29.550814-7.266594-9.204352 0.968879-13.564308 9.688791-12.110989 24.221979 3.391077 45.53732 15.017627 66.852662 26.159737 2.906637 1.453319 5.328835 4.844396 3.391077 8.235473-3.875517 6.297715-10.173231 7.266594-20.346462 7.266593z"
    fill="#161515" p-id="10072"></path>
</svg>